<?xml version="1.0" standalone="no"?>
<!DOCTYPE svg PUBLIC "-//W3C//DTD SVG 20010904//EN"
 "http://www.w3.org/TR/2001/REC-SVG-20010904/DTD/svg10.dtd">
<svg version="1.0" xmlns="http://www.w3.org/2000/svg"
 width="1280.000000pt" height="1219.000000pt" viewBox="0 0 1280.000000 1219.000000"
 preserveAspectRatio="xMidYMid meet">
<metadata>
Created by potrace 1.15, written by Peter Selinger 2001-2017
</metadata>
<g transform="translate(0.000000,1219.000000) scale(0.100000,-0.100000)"
fill="#000000" stroke="none">
<path d="M6401 12115 c-12 -38 -132 -430 -268 -870 -135 -440 -388 -1266 -563
-1835 -175 -569 -382 -1246 -461 -1503 l-144 -468 -130 6 c-71 3 -476 15 -900
25 -676 18 -2143 56 -3440 91 -231 6 -435 9 -452 7 -30 -3 25 -43 609 -453
353 -247 793 -556 977 -686 185 -129 806 -565 1381 -968 575 -403 1047 -735
1050 -738 5 -5 -17 -69 -260 -753 -312 -880 -382 -1078 -500 -1410 -65 -184
-178 -501 -250 -705 -72 -203 -185 -521 -250 -705 -65 -184 -178 -501 -250
-705 -73 -203 -134 -378 -137 -388 -3 -9 887 653 1977 1473 1090 819 1985
1490 1989 1490 3 0 888 -678 1965 -1505 1078 -827 1962 -1503 1964 -1500 2 2
-13 52 -33 112 -21 59 -82 239 -137 398 -55 160 -126 367 -158 460 -32 94 -85
249 -118 345 -33 96 -83 243 -112 325 -28 83 -60 175 -70 205 -10 30 -64 188
-120 350 -56 162 -129 374 -161 470 -128 372 -179 520 -229 665 -28 83 -60
175 -70 205 -10 30 -64 188 -120 350 -56 162 -128 372 -160 465 -32 94 -70
205 -85 248 -23 67 -25 81 -14 92 8 7 273 190 589 407 316 217 886 607 1265
868 380 261 985 676 1345 923 878 603 872 599 868 603 -3 2 -2929 -43 -4559
-72 l-395 -7 -26 89 c-14 49 -49 168 -78 264 -29 96 -65 218 -80 270 -15 52
-51 174 -80 270 -29 96 -65 218 -80 270 -15 52 -51 174 -80 270 -77 260 -127
430 -170 575 -21 72 -61 209 -90 305 -29 96 -65 218 -80 270 -15 52 -51 174
-80 270 -29 96 -65 218 -80 270 -15 52 -51 174 -80 270 -29 96 -70 236 -92
310 -22 74 -57 194 -78 265 -21 72 -56 191 -78 265 -84 286 -141 476 -150 500
-9 23 -11 19 -31 -45z"/>
</g>
</svg>
